<?xml version="1.0" standalone="no"?>
<!DOCTYPE svg PUBLIC "-//W3C//DTD SVG 20010904//EN"
 "http://www.w3.org/TR/2001/REC-SVG-20010904/DTD/svg10.dtd">
<svg version="1.0" xmlns="http://www.w3.org/2000/svg"
 width="28.000000pt" height="31.000000pt" viewBox="0 0 28.000000 31.000000"
 preserveAspectRatio="xMidYMid meet">

<g transform="translate(0.000000,31.000000) scale(0.100000,-0.100000)"
fill="#000000" stroke="none">
<path d="M133 281 c-22 -16 -51 -46 -64 -68 -13 -21 -31 -44 -41 -51 -42 -31
-30 -129 18 -151 38 -17 39 -14 5 15 -26 21 -31 33 -31 67 0 23 4 49 9 56 6
10 8 1 4 -26 -7 -53 9 -80 60 -104 75 -33 157 -17 157 32 0 56 -71 129 -126
129 -43 0 -45 19 -3 54 35 30 93 35 125 11 23 -17 34 -19 34 -4 0 5 -16 17
-35 25 -43 18 -95 7 -133 -28 -16 -15 -23 -17 -20 -8 7 22 67 60 94 60 13 0
24 5 24 10 0 19 -37 10 -77 -19z m35 -155 c20 -19 34 -37 30 -41 -3 -3 -24 -1
-47 5 -45 12 -68 39 -49 58 18 18 25 15 66 -22z"/>
</g>
</svg>
